<svg width="24" height="24" viewBox="0 0 24 24" fill="none" xmlns="http://www.w3.org/2000/svg">
<path d="M18.6285 6.19579L18.6291 6.19507C18.748 6.06889 18.8886 6.01145 19.0054 6.00159C19.1141 5.99242 19.2042 6.02169 19.2813 6.08915C19.5508 6.32625 19.5755 6.79656 19.3222 7.06537L19.3219 7.06568L17.2481 9.26838L15.1749 7.06633C15.1748 7.06625 15.1748 7.06617 15.1747 7.06609C14.922 6.79711 14.9468 6.32627 15.2164 6.08914C15.2933 6.02189 15.3837 5.99238 15.4929 6.00159C15.6101 6.01149 15.75 6.06901 15.8675 6.19399L15.8675 6.19399L15.8692 6.19579L16.1578 6.50164L17.2488 7.65817L18.3399 6.50164L18.6285 6.19579Z" fill="#666666" stroke="#666666" stroke-width="3"/>
<path fill-rule="evenodd" clip-rule="evenodd" d="M21.6517 10.36C21.1541 11.1246 20.4628 11.7515 19.6473 12.1712L22.1198 14.208C22.1704 14.2499 22.2287 14.2814 22.2915 14.3007C22.3543 14.32 22.4202 14.3268 22.4856 14.3206C22.551 14.3144 22.6145 14.2954 22.6726 14.2646C22.7306 14.2338 22.782 14.192 22.8239 14.1413L23.8863 12.8494C23.9281 12.7985 23.9595 12.7399 23.9786 12.6768C23.9976 12.6137 24.0041 12.5475 23.9975 12.482C23.9909 12.4164 23.9714 12.3528 23.9402 12.2948C23.909 12.2368 23.8666 12.1855 23.8155 12.1439L21.6517 10.36ZM12.004 7.73036C12.1246 10.523 14.4266 12.75 17.2487 12.75C17.5662 12.75 17.8771 12.7218 18.1791 12.6678L19.9991 14.1663V21.0007C19.9991 21.1776 19.9289 21.3472 19.8038 21.4722C19.6788 21.5972 19.5093 21.6675 19.3325 21.6675L14.6653 21.6546C14.5776 21.6546 14.4908 21.6373 14.4097 21.6036C14.3287 21.57 14.2552 21.5207 14.1932 21.4585C14.1313 21.3964 14.0822 21.3227 14.0489 21.2415C14.0155 21.1604 13.9984 21.0735 13.9987 20.9857V17.0001C13.9987 16.8233 13.9285 16.6537 13.8035 16.5286C13.6785 16.4036 13.5089 16.3333 13.3321 16.3333H10.6656C10.4888 16.3333 10.3193 16.4036 10.1943 16.5286C10.0693 16.6537 9.99902 16.8233 9.99902 17.0001V20.9886C9.99902 21.1649 9.92925 21.334 9.80495 21.4589C9.68066 21.5839 9.51196 21.6545 9.33574 21.6554L4.66693 21.6675C4.49013 21.6675 4.32058 21.5972 4.19556 21.4722C4.07055 21.3472 4.00032 21.1776 4.00032 21.0007V14.1709L11.6818 7.84283C11.7721 7.77004 11.8846 7.73034 12.0005 7.73034C12.0017 7.73034 12.0029 7.73035 12.004 7.73036ZM12.1985 6.06191C12.1363 6.03559 12.069 6.02174 12.0005 6.02174C11.8846 6.02174 11.7721 6.06144 11.6818 6.13423L1.88173 14.208C1.83104 14.2499 1.77259 14.2813 1.70973 14.3006C1.64686 14.3198 1.58082 14.3265 1.51538 14.3202C1.44994 14.3139 1.38638 14.2947 1.32835 14.2638C1.27033 14.2329 1.21896 14.1909 1.1772 14.1401L0.114782 12.8482C0.0729083 12.7976 0.0414151 12.7392 0.0221021 12.6764C0.00278923 12.6136 -0.00396488 12.5476 0.00222573 12.4822C0.00841634 12.4168 0.0274303 12.3533 0.0581813 12.2952C0.0889323 12.2372 0.130818 12.1858 0.181444 12.1439L10.7277 3.45631C11.0857 3.16167 11.5349 3.00058 11.9985 3.00058C12.462 3.00058 12.9112 3.16167 13.2692 3.45631L13.5982 3.72709C12.9442 4.36014 12.4543 5.16175 12.1985 6.06191ZM20.0038 3.03029C20.067 3.06935 20.1294 3.10972 20.1908 3.15135C20.1892 3.14971 20.1876 3.14808 20.186 3.14646C20.1339 3.09442 20.0716 3.05504 20.0038 3.03029Z" fill="#666666"/>
</svg>
